HIERARCHY
ROOT hip
{
  OFFSET 0 0 0
  CHANNELS 6 Xposition Yposition Zposition Zrotation Yrotation Xrotation
  JOINT abdomen
  {
    OFFSET 0 20.6881 -0.73152
    CHANNELS 3 Zrotation Xrotation Yrotation
    JOINT chest
    {
      OFFSET 0 11.7043 -0.48768
      CHANNELS 3 Zrotation Xrotation Yrotation
      JOINT neck
      {
        OFFSET 0 22.1894 -2.19456
        CHANNELS 3 Zrotation Xrotation Yrotation
        JOINT head
        {
          OFFSET -0.24384 7.07133 1.2192
          CHANNELS 3 Zrotation Xrotation Yrotation
          JOINT leftEye
          {
            OFFSET 4.14528 8.04674 8.04672
            CHANNELS 3 Zrotation Xrotation Yrotation
            End Site
            {
              OFFSET 1 0 0
            }
          }
          JOINT rightEye
          {
            OFFSET -3.6576 8.04674 8.04672
            CHANNELS 3 Zrotation Xrotation Yrotation
            End Site
            {
              OFFSET 1 0 0
            }
          }
        }
      }
      JOINT rCollar
      {
        OFFSET -2.68224 19.2634 -4.8768
        CHANNELS 3 Zrotation Xrotation Yrotation
        JOINT rShldr
        {
          OFFSET -8.77824 -1.95073 1.46304
          CHANNELS 3 Zrotation Xrotation Yrotation
          JOINT rForeArm
          {
            OFFSET -28.1742 -1.7115 0.48768
            CHANNELS 3 Zrotation Xrotation Yrotation
            JOINT rHand
            {
              OFFSET -22.5879 0.773209 7.07136
              CHANNELS 3 Zrotation Xrotation Yrotation
              JOINT rThumb1
              {
                OFFSET -1.2192 -0.487915 3.41376
                CHANNELS 3 Zrotation Xrotation Yrotation
                JOINT rThumb2
                {
                  OFFSET -3.37035 -0.52449 3.41376
                  CHANNELS 3 Zrotation Xrotation Yrotation
                  End Site
                  {
                    OFFSET -1.78271 -1.18214 1.43049
                  }
                }
              }
              JOINT rIndex1
              {
                OFFSET -7.75947 0.938293 5.60832
                CHANNELS 3 Zrotation Xrotation Yrotation
                JOINT rIndex2
                {
                  OFFSET -2.54057 -0.884171 1.56538
                  CHANNELS 3 Zrotation Xrotation Yrotation
                  End Site
                  {
                    OFFSET -1.62519 -0.234802 1.16502
                  }
                }
              }
              JOINT rMid1
              {
                OFFSET -8.24714 1.18213 3.41376
                CHANNELS 3 Zrotation Xrotation Yrotation
                JOINT rMid2
                {
                  OFFSET -3.10165 -0.590103 1.0647
                  CHANNELS 3 Zrotation Xrotation Yrotation
                  End Site
                  {
                    OFFSET -2.48547 -0.328903 0.83742
                  }
                }
              }
              JOINT rRing1
              {
                OFFSET -8.82822 0.546677 1.51678
                CHANNELS 3 Zrotation Xrotation Yrotation
                JOINT rRing2
                {
                  OFFSET -2.60934 -0.819778 -0.0198488
                  CHANNELS 3 Zrotation Xrotation Yrotation
                  End Site
                  {
                    OFFSET -2.33842 -0.294052 0.168128
                  }
                }
              }
              JOINT rPinky1
              {
                OFFSET -8.27202 -0.0477905 -0.4584
                CHANNELS 3 Zrotation Xrotation Yrotation
                JOINT rPinky2
                {
                  OFFSET -1.82734 -0.647385 -0.700984
                  CHANNELS 3 Zrotation Xrotation Yrotation
                  End Site
                  {
                    OFFSET -1.69225 -0.51767 -0.607171
                  }
                }
              }
            }
          }
        }
      }
      JOINT lCollar
      {
        OFFSET 2.68224 19.2634 -4.8768
        CHANNELS 3 Zrotation Xrotation Yrotation
        JOINT lShldr
        {
          OFFSET 8.77824 -1.95073 1.46304
          CHANNELS 3 Zrotation Xrotation Yrotation
          JOINT lForeArm
          {
            OFFSET 28.1742 -1.7115 0.48768
            CHANNELS 3 Zrotation Xrotation Yrotation
            JOINT lHand
            {
              OFFSET 22.5879 0.773209 7.07136
              CHANNELS 3 Zrotation Xrotation Yrotation
              JOINT lThumb1
              {
                OFFSET 1.2192 -0.487915 3.41376
                CHANNELS 3 Zrotation Xrotation Yrotation
                JOINT lThumb2
                {
                  OFFSET 3.37035 -0.52449 3.41376
                  CHANNELS 3 Zrotation Xrotation Yrotation
                  End Site
                  {
                    OFFSET 1.78271 -1.18214 1.43049
                  }
                }
              }
              JOINT lIndex1
              {
                OFFSET 7.75947 0.938293 5.60832
                CHANNELS 3 Zrotation Xrotation Yrotation
                JOINT lIndex2
                {
                  OFFSET 2.54057 -0.884171 1.56538
                  CHANNELS 3 Zrotation Xrotation Yrotation
                  End Site
                  {
                    OFFSET 1.62519 -0.234802 1.16502
                  }
                }
              }
              JOINT lMid1
              {
                OFFSET 8.24714 1.18213 3.41376
                CHANNELS 3 Zrotation Xrotation Yrotation
                JOINT lMid2
                {
                  OFFSET 3.10165 -0.590103 1.0647
                  CHANNELS 3 Zrotation Xrotation Yrotation
                  End Site
                  {
                    OFFSET 2.48547 -0.328903 0.83742
                  }
                }
              }
              JOINT lRing1
              {
                OFFSET 8.82822 0.546677 1.51678
                CHANNELS 3 Zrotation Xrotation Yrotation
                JOINT lRing2
                {
                  OFFSET 2.60934 -0.819778 -0.0198488
                  CHANNELS 3 Zrotation Xrotation Yrotation
                  End Site
                  {
                    OFFSET 2.33842 -0.294052 0.168128
                  }
                }
              }
              JOINT lPinky1
              {
                OFFSET 8.27202 -0.0477905 -0.4584
                CHANNELS 3 Zrotation Xrotation Yrotation
                JOINT lPinky2
                {
                  OFFSET 1.82734 -0.647385 -0.700984
                  CHANNELS 3 Zrotation Xrotation Yrotation
                  End Site
                  {
                    OFFSET 1.69225 -0.51767 -0.607171
                  }
                }
              }
            }
          }
        }
      }
    }
  }
  JOINT rButtock
  {
    OFFSET -8.77824 4.35084 1.2192
    CHANNELS 3 Zrotation Xrotation Yrotation
    JOINT rThigh
    {
      OFFSET 0 -1.70687 -2.19456
      CHANNELS 3 Zrotation Xrotation Yrotation
      JOINT rShin
      {
        OFFSET 0 -36.8199 0.73152
        CHANNELS 3 Zrotation Xrotation Yrotation
        JOINT rFoot
        {
          OFFSET 0.73152 -45.1104 -5.12064
          CHANNELS 3 Zrotation Xrotation Yrotation
          End Site
          {
            OFFSET -1.1221 -3.69964 12.103
          }
        }
      }
    }
  }
  JOINT lButtock
  {
    OFFSET 8.77824 4.35084 1.2192
    CHANNELS 3 Zrotation Xrotation Yrotation
    JOINT lThigh
    {
      OFFSET 0 -1.70687 -2.19456
      CHANNELS 3 Zrotation Xrotation Yrotation
      JOINT lShin
      {
        OFFSET 0 -36.8199 0.73152
        CHANNELS 3 Zrotation Xrotation Yrotation
        JOINT lFoot
        {
          OFFSET -0.73152 -45.1104 -5.12064
          CHANNELS 3 Zrotation Xrotation Yrotation
          End Site
          {
            OFFSET 1.1221 -3.69964 12.103
          }
        }
      }
    }
  }
}
MOTION
Frames:	5
Frame Time:	0.03333
0.0 0.0 0.0 0.0 0.0 0.0 0.0 0.0 0.0 0.0 0.0 0.0 0.0 0.0 0.0 0.0 0.0 0.0 0.0 0.0 0.0 0.0 0.0 0.0 0.0 0.0 0.0 0.0 0.0 0.0 0.0 0.0 0.0 0.0 0.0 0.0 0.0 0.0 0.0 0.0 0.0 0.0 0.0 0.0 0.0 0.0 0.0 0.0 0.0 0.0 0.0 0.0 0.0 0.0 0.0 0.0 0.0 0.0 0.0 0.0 0.0 0.0 0.0 0.0 0.0 0.0 0.0 0.0 0.0 0.0 0.0 0.0 0.0 0.0 0.0 0.0 0.0 0.0 0.0 0.0 0.0 0.0 0.0 0.0 0.0 0.0 0.0 0.0 0.0 0.0 0.0 0.0 0.0 0.0 0.0 0.0 0.0 0.0 0.0 0.0 0.0 0.0 0.0 0.0 0.0 0.0 0.0 0.0 0.0 0.0 0.0 0.0 0.0 0.0 0.0 0.0 0.0 0.0 0.0 0.0 0.0 0.0 0.0 0.0 0.0 0.0 0.0 0.0 0.0 0.0 0.0 0.0
0.0915 59.894999999999996 0.15109999999999998 -0.245206 -3.999207 -1.425587 0.211173 4.17433 -3.686261 -9.588682 -6.882555 110.83505 -10.676238 -9.547075 -84.220802 46.246729 -2.422711 71.279074 -161.565344 -2.413643 -14.793248 -136.391864 -19.518393 -46.529012 -3.54737 66.723406 87.824331 12.938444 -26.064772 3.571254 12.797242 44.246356 153.089996 -163.326936 39.605208 88.88169 -168.374103 -10.262825 52.915738 106.680527 71.119841 -79.85508 121.696281 69.309316 -90.320902 -179.171193 -22.888796 35.476697 -21.25025 13.872197 -58.104881 -158.68876 76.634689 -35.361467 164.358758 18.129857 -59.948705 173.643201 -0.805809 122.543495 -105.08736 37.737355 -101.045442 -98.167519 -77.294494 -84.054431 94.711217 -35.334061 -151.223983 -149.824219 -62.675927 -143.245357 4.477682 -89.397932 -155.118548 -142.539371 -50.003246 -60.811063 6.235276 -7.893427 -35.270321 -86.172852 -83.619476 -45.157172 148.911808 4.912699 -58.509071 143.28004 -15.725912 -114.768575 166.064021 44.226919 -92.645729 -65.163771 -66.513984 -110.735886 -58.093805 -1.899504 -175.115654 77.481281 -59.660328 -65.995615 142.652538 1.208263 45.717949 -140.244982 60.711651 153.916483 -43.535408 34.438188 -115.777843 6.629378 53.640931 -163.338902 8.995419 1.577046 88.659833 -65.130931 52.366799 76.931753 -4.943583 -50.144074 0.279105 6.748581 51.73111 0.0 -4.623415 0.655928 -98.267534 71.728755 4.430715 -108.708713
-0.5701 60.4044 0.28869999999999996 0.962319 -26.503514 -2.835548 -5.990335 12.847346 -154.73638 -0.793731 7.168706 153.575179 -12.52456 28.93165 -106.321532 39.73459 21.495378 64.904961 0.447101 0.053701 13.6979 15.487422 0.890568 6.542163 -158.546688 -30.804625 166.659155 -108.005553 -66.913117 -105.992448 -1.024659 29.511431 -111.997209 151.68402 -31.848082 131.282658 -9.829964 7.40162 -3.460141 -95.846898 10.173876 77.939834 -124.46718 19.039547 85.789976 0.512216 29.406309 -1.503325 8.887882 -48.227296 12.740296 -8.703438 -34.732074 -20.417279 -157.79664 -1.850542 174.920887 -144.44865 -57.07845 -165.591325 -141.757481 52.448097 -160.589657 -127.254212 -0.058472 -121.149856 154.535242 -3.110667 -162.348478 -132.680367 15.689887 -171.868402 -10.22623 47.967492 -99.535634 14.766175 -26.614833 8.70706 -10.319407 -6.498568 -0.769299 129.124087 -28.057404 -146.919276 -30.65569 -40.950839 14.798735 -5.575314 5.349993 10.735536 -4.776004 -10.329321 1.415884 -13.657346 -0.254116 17.447312 135.033006 -21.918861 165.256747 160.259244 -66.473337 -165.614362 71.362179 -51.773694 30.50001 164.135865 38.08467 100.475565 155.107867 71.85943 15.827854 160.52241 12.520995 3.992785 28.931495 64.315634 43.360555 -141.52841 7.116305 71.50012 0.031426 -1.680551 1.071454 24.317532 -7.624248 -89.583928 -58.794876 -19.623213 -4.52195 123.192639 -36.62661 -167.095357
-0.4767 59.4464 0.7607 -0.678497 -26.146608 -2.473661 -2.365729 12.972134 -64.902304 7.414386 -2.588431 64.992794 -1.701103 16.530177 4.595271 -1.870849 -26.816895 -48.135254 -15.821063 0.360215 -2.591998 -6.484385 -0.748112 13.148642 -43.117738 67.490975 47.311929 75.074745 -52.792142 83.714045 24.745167 -34.98905 89.031179 -18.543503 53.97391 7.657915 -1.491811 10.419777 3.873059 -168.853787 -46.794949 108.242325 82.457742 -64.795458 35.279963 -174.394088 -36.226431 99.430805 -143.712021 28.958355 119.079562 94.083721 -55.638703 65.232005 -82.986402 -70.956858 -89.903515 -137.340195 -40.295657 -164.809033 -1.331766 10.090836 20.860248 -45.47858 -21.673861 -45.320905 131.462664 54.864021 -132.582844 114.934653 18.329462 -82.673647 171.738135 11.71293 78.664697 11.627584 -42.298596 10.593612 28.724803 37.381345 -8.485178 -14.188796 -29.088947 -11.4631 163.33437 -66.266223 -126.345319 53.11733 50.808633 -59.294054 -10.473407 -21.062601 -4.106577 6.57033 -3.744523 17.803793 140.913374 -16.957208 178.633955 148.754062 -3.934238 -164.620413 6.849356 37.400718 -19.118251 -33.716491 -15.309765 6.176545 143.001849 74.705761 24.87508 163.477493 17.804474 -0.0 28.781773 62.505145 47.449609 9.729251 -29.624699 -74.956515 -5.580588 -1.314908 7.086532 28.506029 -14.302193 -101.368922 -68.31039 -20.340859 -131.254317 -172.654047 86.292859 63.501688
-0.9106 57.63120000000001 1.1762 -0.28291 -21.861343 -2.573807 -4.59631 16.195592 -0.0 3.20247 -11.767425 -0.398234 -13.679831 33.922501 -107.735039 38.221359 23.827339 54.164798 -10.843955 -2.626527 27.157187 -7.721307 -0.787813 11.634236 -155.201422 -47.82818 175.302675 -47.683187 -45.935357 -60.303732 -106.526616 15.332863 -127.138037 11.359159 -18.378715 4.275471 -177.103954 -19.487413 81.745903 -121.457015 -1.54228 58.897556 -146.545969 -19.125249 123.625296 -144.735669 2.805777 141.999674 -86.44203 58.598018 77.606325 -2.78415 11.303545 14.13669 -9.493233 2.328012 -9.819233 -138.28542 18.833358 154.912359 -162.336905 73.851436 -147.954361 62.778036 56.242947 -41.327086 158.201655 -4.704857 -160.57578 64.908883 27.748941 -11.302704 179.21663 -3.855396 75.659663 13.933417 -44.991342 12.325554 -95.570613 -54.142587 -36.811704 151.692764 -1.236917 -103.053873 168.085113 -59.999515 -130.559554 -110.812295 -69.10429 -44.36986 -1.912936 -12.064466 -0.834224 152.721168 41.556254 -142.180638 -5.415807 -14.425833 -5.954743 165.996557 71.783796 -172.444621 7.658359 -3.168261 -4.68605 79.09953 -38.956236 85.791791 -0.122305 -1.482958 -4.715262 -48.986304 -51.231449 -42.486121 -14.120559 75.318313 -108.101816 -68.995041 66.969202 156.880934 136.067168 75.155911 29.860682 -116.803082 42.360148 -161.397878 -70.705237 -35.006591 -150.970672 -34.921246 22.044901 -80.892533
